<?xml version="1.0" standalone="no"?><!DOCTYPE svg PUBLIC "-//W3C//DTD SVG 1.1//EN" "http://www.w3.org/Graphics/SVG/1.1/DTD/svg11.dtd"><svg t="1590661103584" class="icon" viewBox="0 0 1024 1024" version="1.1" xmlns="http://www.w3.org/2000/svg" p-id="4290" xmlns:xlink="http://www.w3.org/1999/xlink" width="32" height="32"><defs><style type="text/css"></style></defs><path d="M33.28 713.728a42.688 42.688 0 0 1 30.144-72.832h910.72a42.688 42.688 0 0 1 0 85.376H166.464l161.92 161.792a42.688 42.688 0 1 1-60.352 60.352L33.28 713.728z m968.96-328.64a42.688 42.688 0 0 1-39.296 26.048H52.288a42.688 42.688 0 0 1 0-85.312h807.68l-161.92-161.92a42.688 42.688 0 1 1 60.416-60.288l234.688 234.688a42.688 42.688 0 0 1 9.344 46.208z" p-id="4291" fill="#ffffff"></path></svg>