<?xml version="1.0" standalone="no"?><!DOCTYPE svg PUBLIC "-//W3C//DTD SVG 1.1//EN" "http://www.w3.org/Graphics/SVG/1.1/DTD/svg11.dtd"><svg t="1591239472879" class="icon" viewBox="0 0 1024 1024" version="1.1" xmlns="http://www.w3.org/2000/svg" p-id="9119" width="48" height="48" xmlns:xlink="http://www.w3.org/1999/xlink"><defs><style type="text/css"></style></defs><path d="M656.1 864.6c-4.4 0-8.9-1.2-12.8-3.4L108.4 552.4c-5.9-3.4-10.2-9-11.9-15.5-1.7-6.6-0.8-13.5 2.5-19.4l51.2-88.6c7.1-12.2 22.7-16.5 35-9.4 12.2 7.1 16.4 22.7 9.4 35l-38.4 66.4L646.7 804l195.4-338.5c72.2-125.1 29.2-285.6-95.9-357.8l-37-21.3c-60.5-35-131.1-44.2-198.6-26.2-67.5 18.1-124 61.4-158.9 122l-55 95.2c-7.1 12.2-22.8 16.4-35 9.4-12.2-7.1-16.4-22.7-9.4-35l55-95.2c41.8-72.4 109.3-124.2 190-145.8S662.4 0.3 734.8 42.1l37 21.3c149.5 86.3 200.9 278.2 114.6 427.7L678.3 851.8c-3.4 5.9-9 10.2-15.5 11.9-2.3 0.6-4.5 0.9-6.7 0.9z" p-id="9120" fill="#AF2A47"></path><path d="M237.4 1024c-13.5 0-26.8-3.5-38.9-10.5-20.6-11.9-34.4-32.2-38-55.7L96.6 538.4c-1.5-9.7 2.7-19.4 10.8-25 8.2-5.5 18.7-5.9 27.2-1l529.8 305.9c8.5 4.9 13.5 14.3 12.7 24.1-0.7 9.8-7 18.3-16.2 21.9l-395.2 154.4c-9.1 3.5-18.8 5.3-28.3 5.3z m19-29.2h0.2-0.2zM155.2 583.3l55.9 366.8c1.2 8 6 15 13 19.1s15.5 4.7 23 1.7l345.6-135-437.5-252.6zM206.2 384.1c-12.4-7.2-16.8-23.2-9.6-35.7l13.1-22.6c7.2-12.4 23.2-16.8 35.7-9.6 12.4 7.2 16.8 23.2 9.6 35.7l-13.1 22.6c-7.2 12.5-23.2 16.8-35.7 9.6z" p-id="9121" fill="#AF2A47"></path></svg>