<?xml version="1.0" standalone="no"?><!DOCTYPE svg PUBLIC "-//W3C//DTD SVG 1.1//EN" "http://www.w3.org/Graphics/SVG/1.1/DTD/svg11.dtd"><svg t="1591014809774" class="icon" viewBox="0 0 1024 1024" version="1.1" xmlns="http://www.w3.org/2000/svg" p-id="7546" width="128" height="128" xmlns:xlink="http://www.w3.org/1999/xlink"><defs><style type="text/css"></style></defs><path d="M680.658824 0H355.388235C271.058824 0 192.752941 24.094118 132.517647 84.329412 72.282353 138.541176 36.141176 216.847059 36.141176 301.176471v722.823529l90.352942-60.235294V301.176471c0-120.470588 102.4-222.870588 228.894117-222.870589h319.247059C801.129412 78.305882 903.529412 174.682353 903.529412 301.176471v662.588235l90.352941 60.235294V301.176471c0-162.635294-144.564706-301.176471-313.223529-301.176471zM361.411765 710.776471c30.117647 0 48.188235-18.070588 48.188235-48.188236s-24.094118-48.188235-48.188235-48.188235-48.188235 18.070588-48.188236 48.188235 24.094118 48.188235 48.188236 48.188236z m-24.094118-204.8h355.388235c24.094118 0 42.164706-24.094118 42.164706-42.164706V325.270588c0-24.094118-24.094118-42.164706-42.164706-42.164706H337.317647c-24.094118 0-42.164706 24.094118-42.164706 42.164706v138.541177c-6.023529 18.070588 12.047059 42.164706 42.164706 42.164706z m72.282353-295.152942c0 6.023529 6.023529 12.047059 12.047059 12.047059h180.705882c6.023529 0 12.047059-6.023529 12.047059-12.047059s-6.023529-12.047059-12.047059-12.047058H421.647059c-6.023529 0-12.047059 6.023529-12.047059 12.047058z m301.176471 451.764706c0-30.117647-24.094118-48.188235-48.188236-48.188235-30.117647 0-48.188235 18.070588-48.188235 48.188235s24.094118 48.188235 48.188235 48.188236 48.188235-18.070588 48.188236-48.188236z m-355.388236 108.42353C289.129412 771.011765 240.941176 722.823529 240.941176 662.588235V283.105882c0-60.235294 48.188235-120.470588 114.447059-120.470588 0 0 96.376471-6.023529 156.611765-6.023529 66.258824 0 150.588235 6.023529 150.588235 6.023529 60.235294 0 108.423529 54.211765 108.42353 120.470588V662.588235c0 60.235294-48.188235 108.423529-114.447059 108.42353h-301.176471z m325.270589 30.117647l138.541176 174.682353h-48.188235l-72.282353-90.352941h-361.411765l-72.282353 90.352941h-60.235294l138.541176-174.682353h66.258824l-42.164706 48.188235H662.588235l-42.164706-48.188235h60.235295z" fill="#d81e06" p-id="7547"></path></svg>