<?xml version="1.0" standalone="no"?><!DOCTYPE svg PUBLIC "-//W3C//DTD SVG 1.1//EN" "http://www.w3.org/Graphics/SVG/1.1/DTD/svg11.dtd"><svg t="1590757420798" class="icon" viewBox="0 0 1024 1024" version="1.1" xmlns="http://www.w3.org/2000/svg" p-id="2870" width="16" height="16" xmlns:xlink="http://www.w3.org/1999/xlink"><defs><style type="text/css"></style></defs><path d="M101.76 513.92a416 416 0 0 1 416-416c152.64 0 270.272 65.536 352.832 196.608a40.64 40.64 0 0 1-5.568 50.368 23.872 23.872 0 0 1-37.376-4.48c-73.792-122.048-177.088-183.04-309.888-183.04a356.608 356.608 0 0 0-356.544 356.608l42.496-25.28a18.176 18.176 0 0 1 21.632 28.8L150.208 587.712a28.8 28.8 0 0 1-48.448-21.056v-52.608z m64.448 218.112a38.336 38.336 0 0 1 4.288-49.088 24.128 24.128 0 0 1 37.632 4.416c75.392 122.112 178.56 183.168 309.632 183.168a356.608 356.608 0 0 0 356.544-356.544l-34.624 16.128a21.056 21.056 0 0 1-22.592-35.072l69.12-59.2a28.8 28.8 0 0 1 47.552 21.888v56.256a416 416 0 0 1-416 416c-142.08 0-259.328-65.984-351.552-197.952z m338.112-320.64l-6.4-6.4v-30.08l6.4-6.4h61.696l9.472-52.288 6.912-5.248 29.888 3.008 5.696 7.424-4.736 27.84-3.52 19.328h96l6.4 6.4v30.08l-6.4 6.4H601.216l-8.192 36.032h123.392l6.4 6.4v29.44l-6.4 6.4h-133.76c-4.032 14.528-8.128 28.16-12.48 41.6H697.6l6.4 6.4-0.64 28.032c-13.824 28.16-34.688 56-62.4 83.456 17.408 10.944 31.232 20.288 43.712 29.76l1.408 8.704-17.472 25.792-9.216 1.536A612.416 612.416 0 0 0 523.84 634.88l-2.816-9.472 16.448-24.32 7.808-2.304c18.432 7.872 38.08 17.472 59.264 28.992 20.096-18.24 36.736-37.12 49.792-56.384h-131.2l-6.08-8.32c8.64-27.264 15.808-51.328 21.632-73.408h-46.72l-6.4-6.4v-29.44l6.4-6.4h57.408l8-36.032H504.32zM403.2 494.912V436.48l6.4-6.4h29.44l6.4 6.4v58.432h40.96l6.4 6.4v27.712l-6.4 6.4h-40.96v44.16c15.36-3.136 32.448-7.168 51.328-12.16l8 6.208v29.056l-4.672 6.144c-22.656 6.208-40.576 10.752-54.656 13.76v87.36l-6.4 6.4H409.6l-6.4-6.4V631.04c-25.152 4.544-50.432 8.32-75.776 11.456l-7.104-5.632-3.648-30.464 5.632-7.104c25.408-2.816 51.712-6.592 80.896-11.648v-52.224H337.92l-6.208-4.928-5.76-31.552c11.072-22.848 21.568-51.84 31.68-87.424h-34.176l-6.4-6.4v-30.08l6.4-6.4h45.184l11.072-51.712 7.104-4.992 29.056 4.032 5.376 7.616c-3.712 18.88-6.592 32.64-9.472 45.056h72.96l6.4 6.4v30.08l-6.4 6.4H400.832c-8.832 30.72-18.368 58.496-28.544 83.392H403.2z" p-id="2871"></path></svg>